<?xml version="1.0" encoding="utf-8"?>
<svg viewBox="0 0 800 800" xmlns="http://www.w3.org/2000/svg">
  <g transform="matrix(0.1, 0, 0, -0.1, 0, 800)" fill="#000000" stroke="none">
    <path d="M3725 7119 c-1174 -102 -2201 -870 -2638 -1974 -94 -238 -154 -473 -194 -755 -24 -175 -24 -605 0 -780 40 -282 100 -517 194 -755 474 -1198 1628 -1985 2913 -1985 1407 0 2647 946 3019 2303 325 1186 -75 2449 -1025 3239 -629 521 -1449 777 -2269 707z m690 -209 c390 -59 719 -171 1033 -351 736 -424 1250 -1122 1426 -1939 48 -222 60 -346 60 -620 0 -274 -12 -398 -60 -620 -187 -867 -758 -1605 -1554 -2007 -292 -148 -594 -240 -945 -290 -182 -25 -568 -25 -750 0 -690 97 -1273 392 -1745 883 -440 457 -706 1011 -796 1654 -25 175 -25 585 0 760 95 683 393 1270 882 1740 489 470 1089 743 1781 810 149 15 510 4 668 -20z" style="fill: rgb(171, 171, 171); fill-rule: evenodd;"/>
    <path d="M3599 5966 c-2 -2 -35 -6 -74 -10 -406 -38 -842 -255 -1136 -563 -120 -127 -211 -255 -293 -413 -105 -204 -173 -393 -210 -589 -15 -77 -18 -96 -35 -236 -9 -71 -8 -466 2 -481 2 -5 8 -34 11 -64 40 -332 190 -684 406 -954 133 -164 339 -337 520 -434 277 -148 685 -224 1045 -193 72 6 144 13 160 16 286 54 483 138 690 293 85 64 290 273 360 366 55 74 185 275 185 286 0 3 -19 17 -42 32 l-41 26 -70 -91 c-148 -195 -309 -364 -437 -461 -133 -100 -317 -177 -505 -210 -122 -22 -461 -15 -581 12 -418 94 -728 337 -898 703 -87 188 -142 399 -166 638 -19 189 -11 604 15 788 74 520 268 900 574 1125 103 75 274 152 427 190 78 20 114 23 299 23 195 -1 217 -2 313 -27 300 -78 527 -241 700 -503 60 -92 160 -303 207 -437 l38 -108 43 0 c30 0 42 4 39 13 -2 6 -9 95 -15 197 -6 102 -13 210 -15 240 -7 93 -15 201 -20 295 -3 50 -8 113 -10 140 -2 28 -7 102 -11 165 -4 63 -8 124 -9 135 -1 11 -3 35 -4 53 l-1 33 -51 -3 -51 -3 -21 -55 c-46 -125 -112 -184 -206 -184 -48 0 -75 9 -187 61 -290 137 -532 193 -827 193 -62 0 -116 -2 -118 -4z" style="fill: rgb(204, 0, 51);"/>
    <path d="M3988 4555 c-107 -29 -196 -102 -244 -202 -25 -51 -29 -69 -29 -148 0 -72 5 -100 22 -138 43 -94 130 -171 295 -263 252 -140 285 -160 325 -197 127 -117 106 -282 -47 -363 -28 -15 -57 -19 -145 -19 -104 0 -114 2 -177 33 -121 60 -183 144 -209 287 -11 58 -15 65 -36 65 l-23 0 0 -241 0 -240 22 3 c14 2 24 13 29 32 16 57 42 59 181 10 228 -79 418 -51 557 81 80 77 115 153 115 255 0 63 -4 85 -31 142 -58 124 -70 133 -477 365 -170 97 -236 167 -236 252 0 85 55 159 147 198 61 25 164 14 244 -26 114 -58 168 -128 205 -266 17 -65 25 -80 40 -80 18 0 19 12 22 238 l2 237 -24 0 c-19 0 -26 -7 -31 -31 -11 -49 -45 -58 -119 -30 -162 62 -273 75 -378 46z" style="fill: rgb(171, 171, 171);"/>
    <path d="M2947 4533 c-13 -27 1 -38 53 -43 68 -7 95 -21 117 -63 17 -29 18 -76 18 -577 0 -579 -1 -590 -48 -619 -12 -8 -49 -17 -82 -20 -51 -5 -60 -9 -60 -26 0 -19 8 -20 293 -23 l292 -2 0 25 c0 24 -3 25 -60 25 -52 0 -64 4 -92 29 l-33 29 0 576 0 576 32 32 c27 27 41 32 93 36 55 4 60 6 60 28 l0 24 -289 0 c-160 0 -292 -3 -294 -7z" style="fill: rgb(171, 171, 171);"/>
    <path d="M4770 4520 c0 -17 7 -20 40 -20 22 0 58 -7 81 -17 75 -29 73 -21 77 -579 2 -295 -1 -521 -7 -565 -13 -97 -37 -122 -124 -129 -56 -4 -62 -7 -65 -28 l-4 -24 399 5 c434 5 466 8 606 67 141 59 247 161 317 305 53 108 70 186 70 326 0 96 -5 133 -26 205 -47 163 -130 280 -258 363 -141 92 -266 111 -748 111 -351 0 -358 0 -358 -20z m734 -71 c193 -37 356 -211 402 -429 25 -116 15 -311 -20 -414 -33 -96 -80 -169 -152 -235 -124 -113 -290 -153 -495 -120 l-69 12 2 585 3 586 33 8 c100 26 187 28 296 7z" style="fill: rgb(171, 171, 171);"/>
  </g>
</svg>